<svg width="32" height="32" viewBox="0 0 32 32" fill="none" xmlns="http://www.w3.org/2000/svg">
<path d="M30.65 9.13914V22.3407C30.65 24.529 29.7807 26.6276 28.2333 28.175C26.686 29.7223 24.5873 30.5916 22.399 30.5916H9.19749C7.0092 30.5916 4.91054 29.7223 3.36318 28.175C1.81583 26.6276 0.946533 24.529 0.946533 22.3407V9.13914C0.946533 6.95085 1.81583 4.85219 3.36318 3.30483C4.91054 1.75748 7.0092 0.888184 9.19749 0.888184H22.399C24.5873 0.888184 26.686 1.75748 28.2333 3.30483C29.7807 4.85219 30.65 6.95085 30.65 9.13914Z" stroke="#FFF083" stroke-width="1.56744" stroke-linecap="round" stroke-linejoin="round"/>
<path d="M20.7488 9.13916C14.9731 9.13916 14.148 12.1293 14.148 15.7399V29.7666M10.8477 17.3901H20.7488" stroke="#FFF083" stroke-width="1.56744" stroke-linecap="round" stroke-linejoin="round"/>
</svg>
