<svg width="138" height="44" viewBox="0 0 138 44" fill="none" xmlns="http://www.w3.org/2000/svg">
<path d="M133.688 43.125H4.3125C1.94062 43.125 0 41.1844 0 38.8125V4.3125C0 1.94062 1.94062 0 4.3125 0H133.688C136.059 0 138 1.94062 138 4.3125V38.8125C138 41.1844 136.059 43.125 133.688 43.125Z" fill="#EFEEEE"/>
<path fill-rule="evenodd" clip-rule="evenodd" d="M10.0199 21.1312V9.81094C10.0199 9.16406 10.559 8.625 11.098 8.625C11.6371 8.625 11.8527 8.73281 12.1761 8.94844L32.984 20.3766C33.4152 20.5922 33.6308 20.9156 33.6308 21.2391C33.6308 21.5625 33.4152 21.8859 32.984 22.1016L12.1761 33.5297C11.9605 33.6375 11.6371 33.8531 11.098 33.8531C10.559 33.8531 10.0199 33.3141 10.0199 32.6672V21.1312Z" fill="url(#paint0_linear_863_2455)"/>
<path fill-rule="evenodd" clip-rule="evenodd" d="M23.4965 21.2391L10.8824 8.625C10.9903 8.625 10.9903 8.625 11.0981 8.625C11.6371 8.625 11.8528 8.73281 12.1762 8.94844L27.4856 17.3578L23.4965 21.2391Z" fill="url(#paint1_linear_863_2455)"/>
<path fill-rule="evenodd" clip-rule="evenodd" d="M27.3777 25.0127L23.4965 21.1314L27.4855 17.1423L32.984 20.1611C33.4152 20.3767 33.6308 20.7001 33.6308 21.0236C33.6308 21.347 33.4152 21.6705 32.984 21.8861L27.3777 25.0127Z" fill="url(#paint2_linear_863_2455)"/>
<path fill-rule="evenodd" clip-rule="evenodd" d="M10.9904 33.6374L23.4966 21.1311L27.3779 25.0124L12.1763 33.3139C11.8529 33.5295 11.6372 33.6374 10.9904 33.6374C11.0982 33.6374 11.0982 33.6374 10.9904 33.6374Z" fill="url(#paint3_linear_863_2455)"/>
<path fill-rule="evenodd" clip-rule="evenodd" d="M76.109 36.5484C75.5699 36.1172 75.1387 35.3625 74.923 34.9312L76.648 34.1766C76.7559 34.3922 76.9715 34.7156 77.1871 35.0391C77.6184 35.4703 78.2652 35.9016 78.9121 35.9016C79.559 35.9016 80.3137 35.5781 80.7449 35.0391C81.0683 34.5 81.284 33.9609 81.284 33.2062V32.5594C79.9902 34.1766 77.2949 33.9609 75.7855 32.2359C74.1683 30.5109 74.1683 27.6 75.7855 25.875C77.4027 24.2578 79.7746 24.0422 81.1761 25.5516V24.7969H83.009V32.8828C83.009 34.9312 82.2543 36.1172 81.284 36.8719C80.6371 37.4109 79.6668 37.6266 78.8043 37.6266C77.834 37.5187 76.8637 37.1953 76.109 36.5484ZM121.282 36.9797L123.115 32.6672L119.881 25.2281H121.714L123.978 30.5109L126.242 25.2281H128.075L123.115 36.9797H121.282ZM112.55 32.8828C112.011 32.3437 111.795 31.5891 111.795 30.8344C111.795 30.1875 112.011 29.5406 112.442 29.1094C113.196 28.3547 114.275 28.0312 115.461 28.0312C116.215 28.0312 116.862 28.1391 117.401 28.4625C117.401 27.1687 116.323 26.6297 115.461 26.6297C114.706 26.6297 113.951 27.0609 113.628 27.8156L112.011 27.1687C112.334 26.4141 113.196 25.0125 115.353 25.0125C116.431 25.0125 117.509 25.3359 118.156 26.0906C118.803 26.8453 119.018 27.7078 119.018 28.8937V33.4219H117.186V32.6672C116.97 32.9906 116.539 33.2062 116.215 33.4219C115.784 33.6375 115.245 33.7453 114.706 33.7453C114.059 33.6375 113.089 33.4219 112.55 32.8828ZM55.0855 29.0016C55.0855 26.8453 56.7027 24.4734 59.6137 24.4734C62.4168 24.4734 64.1418 26.8453 64.1418 29.0016C64.1418 31.1578 62.5246 33.5297 59.6137 33.5297C56.7027 33.5297 55.0855 31.1578 55.0855 29.0016ZM64.7887 29.0016C64.7887 26.8453 66.4058 24.4734 69.3168 24.4734C72.1199 24.4734 73.8449 26.8453 73.8449 29.0016C73.8449 31.1578 72.2277 33.5297 69.3168 33.5297C66.5137 33.5297 64.7887 31.1578 64.7887 29.0016ZM42.9027 31.3734C40.2074 28.6781 40.3152 24.2578 43.0105 21.4547C44.4121 20.0531 46.1371 19.4062 47.9699 19.4062C49.6949 19.4062 51.4199 20.0531 52.7136 21.3469L51.4199 22.7484C49.4793 20.8078 46.3527 20.9156 44.5199 22.8563C42.5793 24.9047 42.5793 28.0312 44.5199 30.0797C46.4605 32.1281 49.6949 32.2359 51.6355 30.1875C52.2824 29.5406 52.498 28.6781 52.6058 27.8156H48.0777V25.875H54.4387C54.5465 26.3062 54.5465 26.8453 54.5465 27.3844C54.5465 29.0016 53.8996 30.6187 52.8215 31.6969C51.6355 32.8828 49.9105 33.5297 48.1855 33.5297C46.2449 33.4219 44.3043 32.775 42.9027 31.3734ZM88.5074 32.1281C86.8902 30.4031 86.8902 27.4922 88.5074 25.6594C90.1246 23.9344 92.8199 23.9344 94.3293 25.6594C94.8683 26.1984 95.1918 26.9531 95.5152 27.7078L89.5855 30.1875C89.909 30.9422 90.6637 31.5891 91.7418 31.5891C92.7121 31.5891 93.359 31.2656 94.0059 30.2953L95.623 31.3734C95.4074 31.5891 95.1918 31.8047 95.084 32.0203C93.2512 33.8531 90.1246 33.8531 88.5074 32.1281ZM99.7199 33.4219V21.4547H103.601C105.865 21.4547 107.698 23.0719 107.698 25.0125C107.698 26.9531 106.081 28.5703 104.032 28.5703H101.661V33.3141H99.7199V33.4219ZM108.776 33.4219V21.4547H110.609V33.4219H108.776ZM84.4105 33.2062V19.8375H86.3512V33.2062H84.4105ZM117.293 29.8641C116.862 29.5406 116.215 29.4328 115.568 29.4328C114.275 29.4328 113.52 30.0797 113.52 30.8344C113.52 31.5891 114.275 32.0203 115.029 32.0203C116.107 32.0203 117.293 31.1578 117.293 29.8641ZM62.0933 29.0016C62.0933 27.7078 61.2308 26.3063 59.6137 26.3063C57.9965 26.3063 57.134 27.7078 57.134 29.0016C57.134 30.2953 57.9965 31.6969 59.6137 31.6969C61.123 31.6969 62.0933 30.2953 62.0933 29.0016ZM71.7965 29.0016C71.7965 27.7078 70.934 26.3063 69.3168 26.3063C67.6996 26.3063 66.8371 27.7078 66.8371 29.0016C66.8371 30.2953 67.6996 31.6969 69.3168 31.6969C70.934 31.6969 71.7965 30.2953 71.7965 29.0016ZM81.3918 29.7562C81.3918 29.6484 81.3918 29.5406 81.4996 29.4328C81.4996 29.325 81.4996 29.1094 81.4996 29.0016C81.4996 28.8937 81.4996 28.6781 81.4996 28.5703V28.4625C81.4996 28.3547 81.3918 28.1391 81.3918 28.0312C81.0683 26.9531 80.098 26.1984 79.1277 26.1984C77.834 26.1984 76.7559 27.4922 76.7559 28.8937C76.7559 30.4031 77.834 31.5891 79.2355 31.5891C80.098 31.6969 80.9605 30.9422 81.3918 29.7562ZM89.2621 28.7859L93.2512 27.0609C92.8199 26.3062 92.173 26.0906 91.634 26.0906C90.0168 26.1984 89.0465 27.9234 89.2621 28.7859ZM105.757 25.1203C105.757 24.0422 104.895 23.2875 103.709 23.2875H101.553V27.0609H103.817C104.895 27.0609 105.757 26.1984 105.757 25.1203Z" fill="#404040"/>
<path fill-rule="evenodd" clip-rule="evenodd" d="M122.684 34.8237H122.576V34.7156H122.684H122.576V34.8237H122.684Z" fill="white"/>
<path fill-rule="evenodd" clip-rule="evenodd" d="M122.9 34.8237C122.9 34.7156 122.9 34.7156 122.9 34.8237C122.792 34.7156 122.792 34.7156 122.9 34.8237C122.792 34.8237 122.792 34.8237 122.9 34.8237ZM122.9 34.7156C122.9 34.8237 122.9 34.8237 122.9 34.7156C122.9 34.8237 122.792 34.8237 122.9 34.7156C122.792 34.7156 122.9 34.7156 122.9 34.7156Z" fill="white"/>
<path fill-rule="evenodd" clip-rule="evenodd" d="M123.008 34.7156H122.9H123.008V34.8237V34.7156Z" fill="white"/>
<path d="M41.3934 10.889C41.3934 8.94839 42.795 7.76245 44.52 7.76245C45.7059 7.76245 46.4606 8.30151 46.9997 9.0562L46.1372 9.59526C45.8138 9.16401 45.2747 8.84058 44.52 8.84058C43.3341 8.84058 42.4716 9.70308 42.4716 10.9968C42.4716 12.2906 43.3341 13.1531 44.52 13.1531C45.1669 13.1531 45.7059 12.8296 45.9216 12.614V11.6437H44.1966V10.6734H47.1075V12.9375C46.5684 13.5843 45.7059 14.0156 44.6278 14.0156C42.795 14.0156 41.3934 12.7218 41.3934 10.889Z" fill="black"/>
<path d="M48.4011 13.9079V7.87036H52.498V8.84068H49.3714V10.35H52.3902V11.3204H49.3714V13.0454H52.498V14.0157L48.4011 13.9079Z" fill="black"/>
<path d="M55.5169 13.9079V8.84068H53.6841V7.87036H58.4278V8.84068H56.595V13.9079H55.5169Z" fill="black"/>
<path d="M62.0934 13.9079V7.87036H63.1715V13.9079H62.0934Z" fill="black"/>
<path d="M66.0823 13.9079V8.84068H64.2495V7.87036H68.9933V8.84068H67.1604V13.9079H66.0823Z" fill="black"/>
<path d="M72.4435 10.889C72.4435 9.0562 73.7372 7.76245 75.5701 7.76245C77.4029 7.76245 78.6966 9.0562 78.6966 10.889C78.6966 12.7218 77.4029 14.0156 75.5701 14.0156C73.7372 14.0156 72.4435 12.614 72.4435 10.889ZM77.5107 10.889C77.5107 9.59526 76.756 8.73276 75.4622 8.73276C74.2763 8.73276 73.4138 9.70308 73.4138 10.889C73.4138 12.1828 74.1685 13.0453 75.4622 13.0453C76.756 13.0453 77.5107 12.075 77.5107 10.889Z" fill="black"/>
<path d="M84.087 13.9079L80.9604 9.59536V13.9079H79.8823V7.87036H80.9604L84.087 12.075V7.87036H85.1651V13.9079H84.087Z" fill="black"/>
<defs>
<linearGradient id="paint0_linear_863_2455" x1="16.9926" y1="7.08716" x2="23.0281" y2="31.8742" gradientUnits="userSpaceOnUse">
<stop stop-color="#006884"/>
<stop offset="1" stop-color="#8AD1D0"/>
</linearGradient>
<linearGradient id="paint1_linear_863_2455" x1="9.63258" y1="10.6128" x2="26.0804" y2="19.5047" gradientUnits="userSpaceOnUse">
<stop stop-color="#24BBB6"/>
<stop offset="1" stop-color="#DBE692"/>
</linearGradient>
<linearGradient id="paint2_linear_863_2455" x1="28.5576" y1="25.4656" x2="28.5576" y2="16.8962" gradientUnits="userSpaceOnUse">
<stop stop-color="#FCC072"/>
<stop offset="1" stop-color="#F58A5B"/>
</linearGradient>
<linearGradient id="paint3_linear_863_2455" x1="12.8175" y1="35.8681" x2="25.8107" y2="22.6447" gradientUnits="userSpaceOnUse">
<stop stop-color="#712B8F"/>
<stop offset="1" stop-color="#EA1D27"/>
</linearGradient>
</defs>
</svg>
