<svg width="184" height="58" viewBox="0 0 184 58" fill="none" xmlns="http://www.w3.org/2000/svg">
<path d="M177.398 57.2245H5.72251C2.57513 57.2245 0 54.6494 0 51.502V5.7219C0 2.57452 2.57513 -0.000610352 5.72251 -0.000610352H177.398C180.545 -0.000610352 183.12 2.57452 183.12 5.7219V51.502C183.12 54.6494 180.545 57.2245 177.398 57.2245Z" fill="black"/>
<path fill-rule="evenodd" clip-rule="evenodd" d="M14.0203 28.0397V13.0181C14.0203 12.1598 14.7356 11.4445 15.4509 11.4445C16.1662 11.4445 16.4523 11.5875 16.8815 11.8736L44.4927 27.0383C45.0649 27.3244 45.351 27.7536 45.351 28.1828C45.351 28.612 45.0649 29.0412 44.4927 29.3273L16.8815 44.492C16.5954 44.635 16.1662 44.9212 15.4509 44.9212C14.7356 44.9212 14.0203 44.2058 14.0203 43.3475V28.0397Z" fill="url(#paint0_linear_863_2345)"/>
<path fill-rule="evenodd" clip-rule="evenodd" d="M31.9031 28.1828L15.1648 11.4445C15.3079 11.4445 15.3079 11.4445 15.4509 11.4445C16.1662 11.4445 16.4524 11.5875 16.8815 11.8736L37.1965 23.0325L31.9031 28.1828Z" fill="url(#paint1_linear_863_2345)"/>
<path fill-rule="evenodd" clip-rule="evenodd" d="M37.0533 33.1899L31.9031 28.0397L37.1964 22.7463L44.4926 26.7521C45.0649 27.0382 45.351 27.4674 45.351 27.8966C45.351 28.3258 45.0649 28.755 44.4926 29.0411L37.0533 33.1899Z" fill="url(#paint2_linear_863_2345)"/>
<path fill-rule="evenodd" clip-rule="evenodd" d="M15.3079 44.6351L31.9032 28.0398L37.0534 33.1901L16.8816 44.2059C16.4524 44.492 16.1662 44.6351 15.3079 44.6351C15.4509 44.6351 15.4509 44.6351 15.3079 44.6351Z" fill="url(#paint3_linear_863_2345)"/>
<path fill-rule="evenodd" clip-rule="evenodd" d="M101.718 48.4977C101.003 47.9255 100.43 46.924 100.144 46.3518L102.433 45.3503C102.576 45.6365 102.862 46.0657 103.148 46.4948C103.721 47.0671 104.579 47.6393 105.437 47.6393C106.296 47.6393 107.297 47.2102 107.87 46.4948C108.299 45.7795 108.585 45.0642 108.585 44.0628V43.2044C106.868 45.3503 103.291 45.0642 101.289 42.7752C99.1427 40.4862 99.1427 36.6235 101.289 34.3345C103.435 32.1886 106.582 31.9024 108.442 33.9053V32.9039H110.874V43.6336C110.874 46.3518 109.872 47.9255 108.585 48.9269C107.726 49.6422 106.439 49.9284 105.294 49.9284C104.007 49.7853 102.719 49.3561 101.718 48.4977ZM161.661 49.07L164.093 43.3475L159.801 33.4761H162.233L165.238 40.4862L168.242 33.4761H170.674L164.093 49.07H161.661ZM150.073 43.6336C149.358 42.9183 149.072 41.9168 149.072 40.9154C149.072 40.057 149.358 39.1986 149.93 38.6264C150.931 37.6249 152.362 37.1958 153.936 37.1958C154.937 37.1958 155.796 37.3388 156.511 37.768C156.511 36.0513 155.08 35.3359 153.936 35.3359C152.934 35.3359 151.933 35.9082 151.504 36.9096L149.358 36.0513C149.787 35.0498 150.931 33.19 153.793 33.19C155.223 33.19 156.654 33.6192 157.512 34.6206C158.371 35.6221 158.657 36.7666 158.657 38.3403V44.3489H156.225V43.3475C155.939 43.7766 155.366 44.0628 154.937 44.3489C154.365 44.635 153.65 44.7781 152.934 44.7781C152.076 44.635 150.788 44.3489 150.073 43.6336ZM73.8206 38.4833C73.8206 35.6221 75.9665 32.4747 79.8292 32.4747C83.5488 32.4747 85.8378 35.6221 85.8378 38.4833C85.8378 41.3446 83.6919 44.492 79.8292 44.492C75.9665 44.492 73.8206 41.3446 73.8206 38.4833ZM86.6962 38.4833C86.6962 35.6221 88.8422 32.4747 92.7049 32.4747C96.4245 32.4747 98.7135 35.6221 98.7135 38.4833C98.7135 41.3446 96.5676 44.492 92.7049 44.492C88.9852 44.492 86.6962 41.3446 86.6962 38.4833ZM57.6545 41.6307C54.0779 38.0541 54.2209 32.1886 57.7975 28.4689C59.6573 26.6091 61.9463 25.7507 64.3784 25.7507C66.6674 25.7507 68.9564 26.6091 70.6732 28.3259L68.9564 30.1857C66.3813 27.6105 62.2325 27.7536 59.8004 30.3287C57.2253 33.0469 57.2253 37.1958 59.8004 39.914C62.3755 42.6321 66.6674 42.7752 69.2425 40.057C70.1009 39.1986 70.3871 38.0541 70.5301 36.9096H64.5215V34.3345H72.9622C73.1052 34.9068 73.1053 35.6221 73.1053 36.3374C73.1053 38.4833 72.2469 40.6293 70.8162 42.0599C69.2425 43.6336 66.9535 44.492 64.6645 44.492C62.0894 44.3489 59.5143 43.4905 57.6545 41.6307ZM118.17 42.6321C116.024 40.3431 116.024 36.4804 118.17 34.0484C120.316 31.7594 123.893 31.7594 125.895 34.0484C126.611 34.7637 127.04 35.7651 127.469 36.7666L119.601 40.057C120.03 41.0585 121.031 41.9168 122.462 41.9168C123.75 41.9168 124.608 41.4876 125.466 40.2001L127.612 41.6307C127.326 41.9168 127.04 42.203 126.897 42.4891C124.465 44.9212 120.316 44.9212 118.17 42.6321ZM133.049 44.3489V28.4689H138.199C141.203 28.4689 143.635 30.6149 143.635 33.19C143.635 35.7651 141.489 37.9111 138.771 37.9111H135.624V44.2058H133.049V44.3489ZM145.066 44.3489V28.4689H147.498V44.3489H145.066ZM112.734 44.0628V26.323H115.309V44.0628H112.734ZM156.368 39.6278C155.796 39.1986 154.937 39.0556 154.079 39.0556C152.362 39.0556 151.361 39.9139 151.361 40.9154C151.361 41.9168 152.362 42.4891 153.364 42.4891C154.794 42.4891 156.368 41.3446 156.368 39.6278ZM83.1197 38.4833C83.1197 36.7666 81.9751 34.9068 79.8292 34.9068C77.6833 34.9068 76.5388 36.7666 76.5388 38.4833C76.5388 40.2001 77.6833 42.0599 79.8292 42.0599C81.8321 42.0599 83.1197 40.2001 83.1197 38.4833ZM95.9953 38.4833C95.9953 36.7666 94.8508 34.9068 92.7049 34.9068C90.5589 34.9068 89.4144 36.7666 89.4144 38.4833C89.4144 40.2001 90.5589 42.0599 92.7049 42.0599C94.8508 42.0599 95.9953 40.2001 95.9953 38.4833ZM108.728 39.4848C108.728 39.3417 108.728 39.1986 108.871 39.0556C108.871 38.9125 108.871 38.6264 108.871 38.4833C108.871 38.3403 108.871 38.0541 108.871 37.9111V37.768C108.871 37.6249 108.728 37.3388 108.728 37.1958C108.299 35.7651 107.011 34.7637 105.724 34.7637C104.007 34.7637 102.576 36.4804 102.576 38.3403C102.576 40.3431 104.007 41.9168 105.867 41.9168C107.011 42.0599 108.156 41.0585 108.728 39.4848ZM119.171 38.1972L124.465 35.9082C123.893 34.9068 123.034 34.6206 122.319 34.6206C120.173 34.7637 118.885 37.0527 119.171 38.1972ZM141.06 33.3331C141.06 31.9024 139.916 30.901 138.342 30.901H135.481V35.9082H138.485C139.916 35.9082 141.06 34.7637 141.06 33.3331Z" fill="white"/>
<path fill-rule="evenodd" clip-rule="evenodd" d="M163.52 46.2081H163.378V46.0657H163.52H163.378V46.2081H163.52Z" fill="white"/>
<path fill-rule="evenodd" clip-rule="evenodd" d="M163.807 46.2081C163.807 46.0657 163.807 46.0657 163.807 46.2081C163.664 46.0657 163.664 46.0657 163.807 46.2081C163.664 46.2081 163.664 46.2081 163.807 46.2081ZM163.807 46.0657C163.807 46.2081 163.807 46.2081 163.807 46.0657C163.807 46.2081 163.664 46.2081 163.807 46.0657C163.664 46.0657 163.807 46.0657 163.807 46.0657Z" fill="white"/>
<path fill-rule="evenodd" clip-rule="evenodd" d="M163.95 46.0657H163.807H163.95V46.2081V46.0657Z" fill="white"/>
<path d="M55.6514 14.4488C55.6514 11.8736 57.5112 10.2999 59.8002 10.2999C61.3739 10.2999 62.3753 11.0152 63.0907 12.0167L61.9461 12.732C61.517 12.1597 60.8016 11.7306 59.8002 11.7306C58.2265 11.7306 57.082 12.8751 57.082 14.5918C57.082 16.3086 58.2265 17.4531 59.8002 17.4531C60.6586 17.4531 61.3739 17.0239 61.66 16.7378V15.4502H59.371V14.1626H63.2337V17.1669C62.5184 18.0253 61.3739 18.5976 59.9433 18.5976C57.5112 18.5976 55.6514 16.8808 55.6514 14.4488Z" fill="white"/>
<path d="M64.9507 18.4545V10.443H70.3871V11.7306H66.2383V13.7334H70.244V15.021H66.2383V17.31H70.3871V18.5976L64.9507 18.4545Z" fill="white"/>
<path d="M74.3928 18.4545V11.7306H71.9607V10.443H78.2554V11.7306H75.8234V18.4545H74.3928Z" fill="white"/>
<path d="M83.1196 18.4545V10.443H84.5503V18.4545H83.1196Z" fill="white"/>
<path d="M88.4128 18.4545V11.7306H85.9807V10.443H92.2755V11.7306H89.8434V18.4545H88.4128Z" fill="white"/>
<path d="M96.8535 14.4488C96.8535 12.0167 98.5703 10.2999 101.002 10.2999C103.434 10.2999 105.151 12.0167 105.151 14.4488C105.151 16.8808 103.434 18.5976 101.002 18.5976C98.5703 18.5976 96.8535 16.7378 96.8535 14.4488ZM103.577 14.4488C103.577 12.732 102.576 11.5875 100.859 11.5875C99.2856 11.5875 98.1411 12.8751 98.1411 14.4488C98.1411 16.1655 99.1425 17.31 100.859 17.31C102.576 17.31 103.577 16.0224 103.577 14.4488Z" fill="white"/>
<path d="M112.305 18.4545L108.156 12.732V18.4545H106.725V10.443H108.156L112.305 16.0224V10.443H113.735V18.4545H112.305Z" fill="white"/>
<defs>
<linearGradient id="paint0_linear_863_2345" x1="23.2727" y1="9.40381" x2="31.2817" y2="42.2952" gradientUnits="userSpaceOnUse">
<stop stop-color="#006884"/>
<stop offset="1" stop-color="#8AD1D0"/>
</linearGradient>
<linearGradient id="paint1_linear_863_2345" x1="13.5063" y1="14.0823" x2="35.3319" y2="25.8814" gradientUnits="userSpaceOnUse">
<stop stop-color="#24BBB6"/>
<stop offset="1" stop-color="#DBE692"/>
</linearGradient>
<linearGradient id="paint2_linear_863_2345" x1="38.619" y1="33.7909" x2="38.619" y2="22.4197" gradientUnits="userSpaceOnUse">
<stop stop-color="#FCC072"/>
<stop offset="1" stop-color="#F58A5B"/>
</linearGradient>
<linearGradient id="paint3_linear_863_2345" x1="17.7323" y1="47.5952" x2="34.9739" y2="30.0483" gradientUnits="userSpaceOnUse">
<stop stop-color="#712B8F"/>
<stop offset="1" stop-color="#EA1D27"/>
</linearGradient>
</defs>
</svg>
