<svg width="94" height="94" viewBox="0 0 94 94" fill="none" xmlns="http://www.w3.org/2000/svg">
<path d="M63.204 63.1852C66.7951 63.1852 69.7074 66.825 69.7074 71.3143C69.7074 75.8037 66.7951 79.4435 63.204 79.4435H7.9257C4.33464 79.4435 1.42236 75.8037 1.42236 71.3143C1.42236 66.825 4.33464 63.1852 7.9257 63.1852M60.3588 79.4435C60.3588 86.6277 56.1621 92.4502 48.978 92.4502H22.1517C14.9676 92.4502 10.7709 86.6277 10.7709 79.4435H60.3588Z" stroke="#FFD233" stroke-width="2.7314" stroke-miterlimit="10" stroke-linecap="round"/>
<path d="M43.8973 17.6619L45.4093 30.6624M64.8299 63.1852H31.3601C30.9294 63.1854 30.5165 63.3564 30.2118 63.6608L24.7592 69.1134C24.6837 69.189 24.594 69.2489 24.4953 69.2898C24.3966 69.3308 24.2909 69.3518 24.184 69.3518C24.0772 69.3518 23.9714 69.3308 23.8727 69.2898C23.774 69.2489 23.6844 69.189 23.6089 69.1134L18.1563 63.6608C17.8516 63.3564 17.4386 63.1854 17.008 63.1852H6.29986C5.00627 63.1852 3.76566 62.6713 2.85095 61.7566C1.93624 60.8419 1.42236 59.6013 1.42236 58.3077V58.3077C1.42236 57.0141 1.93624 55.7735 2.85095 54.8588C3.76566 53.9441 5.00627 53.4302 6.29986 53.4302H64.8299C66.1235 53.4302 67.3641 53.9441 68.2788 54.8588C69.1935 55.7735 69.7074 57.0141 69.7074 58.3077C69.7074 59.6013 69.1935 60.8419 68.2788 61.7566C67.3641 62.6713 66.1235 63.1852 64.8299 63.1852ZM7.9257 50.9914V50.9467C7.9257 39.7691 17.071 33.9202 28.2486 33.9202H42.8811C54.0587 33.9202 63.204 39.8138 63.204 50.9914V50.9467L7.9257 50.9914Z" stroke="#FFD233" stroke-width="2.7314" stroke-miterlimit="10" stroke-linecap="round"/>
<path d="M46.9457 92.4502H75.2575C76.8982 92.4502 78.4783 91.83 79.6809 90.714C80.8836 89.598 81.62 88.0687 81.7426 86.4326L89.0141 17.6619" stroke="#FFD233" stroke-width="2.7314" stroke-miterlimit="10" stroke-linecap="round"/>
<path d="M69.7074 17.6618L72.9591 4.65517L82.5108 1.4035" stroke="#FFD233" stroke-width="2.7314" stroke-linecap="round" stroke-linejoin="round"/>
<path d="M40.4424 17.6619H92.469" stroke="#FFD233" stroke-width="2.7314" stroke-miterlimit="10" stroke-linecap="round"/>
</svg>
