<svg width="31" height="31" viewBox="0 0 31 31" fill="none" xmlns="http://www.w3.org/2000/svg">
<path d="M15.2004 8.93287C13.8541 8.93287 12.538 9.33209 11.4186 10.0801C10.2992 10.828 9.42668 11.8911 8.91147 13.135C8.39627 14.3788 8.26146 15.7475 8.52411 17.0679C8.78677 18.3883 9.43507 19.6012 10.3871 20.5532C11.339 21.5052 12.5519 22.1535 13.8724 22.4162C15.1928 22.6788 16.5615 22.544 17.8053 22.0288C19.0491 21.5136 20.1122 20.6411 20.8602 19.5217C21.6082 18.4023 22.0074 17.0862 22.0074 15.7399C22.0074 13.9346 21.2902 12.2032 20.0137 10.9266C18.7371 9.65004 17.0057 8.93287 15.2004 8.93287ZM15.2004 21.3093C14.0988 21.3093 13.0221 20.9827 12.1062 20.3707C11.1903 19.7587 10.4764 18.8889 10.0549 17.8712C9.63337 16.8535 9.52308 15.7337 9.73798 14.6534C9.95287 13.573 10.4833 12.5806 11.2622 11.8018C12.0411 11.0229 13.0335 10.4924 14.1138 10.2775C15.1942 10.0626 16.314 10.1729 17.3317 10.5945C18.3493 11.016 19.2192 11.7298 19.8311 12.6457C20.4431 13.5616 20.7698 14.6384 20.7698 15.7399C20.7698 17.217 20.183 18.6336 19.1385 19.6781C18.0941 20.7225 16.6775 21.3093 15.2004 21.3093ZM22.0074 0.888184H8.39332C6.25973 0.888184 4.21354 1.73575 2.70487 3.24442C1.1962 4.75309 0.348633 6.79929 0.348633 8.93287V22.547C0.348633 23.6034 0.556715 24.6495 0.960998 25.6255C1.36528 26.6015 1.95785 27.4884 2.70487 28.2354C4.21354 29.7441 6.25973 30.5916 8.39332 30.5916H22.0074C23.0638 30.5916 24.1099 30.3836 25.086 29.9793C26.062 29.575 26.9488 28.9824 27.6959 28.2354C28.4429 27.4884 29.0354 26.6015 29.4397 25.6255C29.844 24.6495 30.0521 23.6034 30.0521 22.547V8.93287C30.0521 7.87643 29.844 6.83033 29.4397 5.8543C29.0354 4.87828 28.4429 3.99144 27.6959 3.24442C26.9488 2.4974 26.062 1.90483 25.086 1.50055C24.1099 1.09627 23.0638 0.888184 22.0074 0.888184ZM28.8144 22.547C28.8144 24.3523 28.0973 26.0837 26.8207 27.3603C25.5441 28.6368 23.8127 29.354 22.0074 29.354H8.39332C6.58798 29.354 4.85658 28.6368 3.58001 27.3603C2.30345 26.0837 1.58628 24.3523 1.58628 22.547V8.93287C1.58628 7.12753 2.30345 5.39613 3.58001 4.11956C4.85658 2.843 6.58798 2.12583 8.39332 2.12583H22.0074C23.8127 2.12583 25.5441 2.843 26.8207 4.11956C28.0973 5.39613 28.8144 7.12753 28.8144 8.93287V22.547ZM24.4827 7.69522C24.4827 7.94001 24.4101 8.17929 24.2741 8.38282C24.1381 8.58635 23.9448 8.74498 23.7187 8.83866C23.4925 8.93233 23.2437 8.95684 23.0036 8.90909C22.7635 8.86133 22.543 8.74346 22.3699 8.57037C22.1968 8.39728 22.0789 8.17676 22.0312 7.93668C21.9834 7.6966 22.0079 7.44775 22.1016 7.2216C22.1953 6.99545 22.3539 6.80216 22.5574 6.66616C22.761 6.53017 23.0003 6.45758 23.245 6.45758C23.5733 6.45758 23.8881 6.58798 24.1202 6.82008C24.3523 7.05218 24.4827 7.36698 24.4827 7.69522Z" fill="#FFF083" stroke="#FFF083" stroke-width="0.522478"/>
</svg>
