<svg width="31" height="31" viewBox="0 0 31 31" fill="none" xmlns="http://www.w3.org/2000/svg">
<path d="M10.4755 13.3151V23.0142C10.4755 23.2554 10.3797 23.4867 10.2091 23.6572C10.0386 23.8277 9.80732 23.9235 9.56616 23.9235C9.32501 23.9235 9.09372 23.8277 8.9232 23.6572C8.75268 23.4867 8.65687 23.2554 8.65687 23.0142V13.3151C8.65687 13.074 8.75268 12.8427 8.9232 12.6722C9.09372 12.5016 9.32501 12.4058 9.56616 12.4058C9.80732 12.4058 10.0386 12.5016 10.2091 12.6722C10.3797 12.8427 10.4755 13.074 10.4755 13.3151ZM9.56616 6.95011C9.26643 6.95011 8.97343 7.03899 8.72421 7.20552C8.47499 7.37204 8.28074 7.60873 8.16604 7.88564C8.05134 8.16256 8.02133 8.46728 8.0798 8.76125C8.13828 9.05523 8.28261 9.32526 8.49456 9.5372C8.7065 9.74915 8.97653 9.89348 9.27051 9.95196C9.56448 10.0104 9.8692 9.98042 10.1461 9.86572C10.423 9.75101 10.6597 9.55677 10.8262 9.30755C10.9928 9.05833 11.0816 8.76533 11.0816 8.46559C11.0816 8.06366 10.922 7.67819 10.6378 7.39399C10.3536 7.10978 9.96809 6.95011 9.56616 6.95011ZM30.4798 3.00986V28.47C30.4798 29.0327 30.2563 29.5723 29.8584 29.9702C29.4605 30.3681 28.9208 30.5916 28.3581 30.5916H2.89804C2.33534 30.5916 1.79568 30.3681 1.39779 29.9702C0.9999 29.5723 0.776367 29.0327 0.776367 28.47V3.00986C0.776367 2.44716 0.9999 1.9075 1.39779 1.50961C1.79568 1.11172 2.33534 0.888184 2.89804 0.888184H28.3581C28.9208 0.888184 29.4605 1.11172 29.8584 1.50961C30.2563 1.9075 30.4798 2.44716 30.4798 3.00986ZM28.6612 3.00986C28.6612 2.92947 28.6293 2.85238 28.5725 2.79554C28.5156 2.7387 28.4385 2.70676 28.3581 2.70676H2.89804C2.81766 2.70676 2.74056 2.7387 2.68372 2.79554C2.62688 2.85238 2.59495 2.92947 2.59495 3.00986V28.47C2.59495 28.5503 2.62688 28.6274 2.68372 28.6843C2.74056 28.7411 2.81766 28.7731 2.89804 28.7731H28.3581C28.4385 28.7731 28.5156 28.7411 28.5725 28.6843C28.6293 28.6274 28.6612 28.5503 28.6612 28.47V3.00986ZM18.6591 12.4058C17.4373 12.4068 16.2557 12.8419 15.325 13.6334V13.3151C15.325 13.074 15.2292 12.8427 15.0587 12.6722C14.8881 12.5016 14.6569 12.4058 14.4157 12.4058C14.1745 12.4058 13.9433 12.5016 13.7727 12.6722C13.6022 12.8427 13.5064 13.074 13.5064 13.3151V23.0142C13.5064 23.2554 13.6022 23.4867 13.7727 23.6572C13.9433 23.8277 14.1745 23.9235 14.4157 23.9235C14.6569 23.9235 14.8881 23.8277 15.0587 23.6572C15.2292 23.4867 15.325 23.2554 15.325 23.0142V17.5585C15.325 16.6742 15.6763 15.8262 16.3015 15.201C16.9268 14.5757 17.7748 14.2244 18.6591 14.2244C19.5433 14.2244 20.3913 14.5757 21.0166 15.201C21.6419 15.8262 21.9931 16.6742 21.9931 17.5585V23.0142C21.9931 23.2554 22.0889 23.4867 22.2594 23.6572C22.43 23.8277 22.6612 23.9235 22.9024 23.9235C23.1436 23.9235 23.3748 23.8277 23.5454 23.6572C23.7159 23.4867 23.8117 23.2554 23.8117 23.0142V17.5585C23.8077 16.1932 23.2635 14.8849 22.2981 13.9194C21.3327 12.954 20.0244 12.4098 18.6591 12.4058Z" fill="#FFF083"/>
</svg>
