<svg width="32" height="31" viewBox="0 0 32 31" fill="none" xmlns="http://www.w3.org/2000/svg">
<path d="M24.8889 15.3592V15.974C24.8889 22.1653 20.4951 29.2603 12.455 29.2603C10.0815 29.2658 7.75838 28.5284 5.77222 27.1392C6.11716 27.1893 6.4651 27.2119 6.81317 27.2068C8.78063 27.2126 10.6928 26.511 12.2422 25.2148C11.3282 25.2004 10.4416 24.8784 9.7086 24.2945C8.97556 23.7106 8.43331 22.8946 8.15893 21.9624C8.43119 22.0241 8.70877 22.055 8.98709 22.0546C9.37573 22.0547 9.76261 21.9989 10.1373 21.8886C9.1473 21.6776 8.25665 21.1054 7.61775 20.2699C6.97884 19.4343 6.63141 18.3874 6.63488 17.3082V17.2467C7.24059 17.6084 7.91966 17.8068 8.61327 17.8246C7.68998 17.1751 7.03354 16.1732 6.77807 15.0236C6.5226 13.8741 6.68738 12.6636 7.23875 11.6395C8.33736 13.084 9.70804 14.2652 11.2617 15.1063C12.8153 15.9473 14.5171 16.4294 16.2565 16.5212C16.1704 16.1723 16.1298 15.8123 16.1357 15.4514C16.1033 14.4978 16.3467 13.5566 16.8326 12.7561C17.3185 11.9556 18.0234 11.3347 18.8513 10.9779C19.6792 10.621 20.5898 10.5456 21.4592 10.7619C22.3286 10.9783 23.1145 11.4758 23.7099 12.1867C24.6886 11.9756 25.6275 11.5911 26.4877 11.0493C26.1615 12.1507 25.4675 13.0852 24.5381 13.6746C25.4063 13.5467 26.2527 13.2858 27.0513 12.8999C26.4726 13.8502 25.7404 14.6829 24.8889 15.3592V15.3592Z" stroke="#FFF083" stroke-width="1.56744" stroke-linecap="round" stroke-linejoin="round"/>
<rect x="1.33887" y="0.888184" width="29.2588" height="29.2588" rx="3.13487" stroke="#FFF083" stroke-width="1.56744"/>
</svg>
